<?xml version="1.0" encoding="utf-8"?>
<!-- Generator: Adobe Illustrator 19.0.1, SVG Export Plug-In . SVG Version: 6.00 Build 0)  -->
<svg version="1.1" id="Layer_1" xmlns="http://www.w3.org/2000/svg" xmlns:xlink="http://www.w3.org/1999/xlink" x="0px" y="0px"
	 viewBox="-209 300 214 206" enable-background="new -209 300 214 206" xml:space="preserve">
<g>
	<g>
		<path fill="#FFFFFF" d="M-233,541c0-89.3,0-178.7,0-268c94.3,0,188.7,0,283,0c0,89.3,0,178.7,0,268C-44.3,541-138.7,541-233,541z
			 M-82.5,387.2c-2.2,0-3.9,0-5.7,0c-26,0-52,0-78-0.2c-5.3,0-8,1.6-9.5,7.1c-7.5,28.5-15.4,56.8-23.1,85.2c-2,7.5-1,8.8,6.9,8.8
			c33.5,0,67,0,100.5,0c28.8,0,57.6,0,86.5,0c6.2,0,7.7-1.6,6.3-6.8c-8.1-29.7-16.2-59.4-24.2-89.1c-0.9-3.5-2.9-5-6.4-5
			c-3.4,0-6.8,0-10.5,0c4.3-10,8.9-19.1,12.1-28.6c2.4-7.1,4.6-15,3.9-22.3c-1.7-18.8-17.6-32.3-36.7-33.1
			c-17.2-0.7-33.7,12.3-37.8,29.7c-2.2,9.2,0.3,17.9,3.6,26.3C-90.9,368.4-86.7,377.4-82.5,387.2z"/>
		<path d="M-82.5,387.2c-4.2-9.8-8.4-18.8-12.1-28c-3.3-8.4-5.8-17-3.6-26.3c4.1-17.4,20.6-30.4,37.8-29.7
			c19.1,0.8,35,14.4,36.7,33.1c0.6,7.3-1.5,15.2-3.9,22.3c-3.2,9.6-7.8,18.6-12.1,28.6c3.7,0,7.1,0,10.5,0c3.5,0,5.4,1.5,6.4,5
			c8,29.7,16.1,59.4,24.2,89.1c1.4,5.2-0.1,6.8-6.3,6.8c-28.8,0-57.6,0-86.5,0c-33.5,0-67,0-100.5,0c-7.9,0-8.9-1.3-6.9-8.8
			c7.7-28.4,15.7-56.8,23.1-85.2c1.4-5.5,4.2-7.1,9.5-7.1c26,0.2,52,0.1,78,0.2C-86.4,387.2-84.7,387.2-82.5,387.2z M-61.2,408.7
			c4.8-8.9,9.3-16.5,12.9-24.5c5.5-12.4,11.1-24.9,15.3-37.8c3.7-11.3-1.6-23.1-11.3-29.6c-10.4-6.9-23.4-6.9-33.7,0.1
			c-9.6,6.5-14.1,18.3-11.3,29.7C-84.1,368.7-71.8,387.4-61.2,408.7z M-150.4,396.7c1.4,1,2.8,2.1,4.3,3.1
			c37.5,25,75.3,49.8,112.5,75.3c8.4,5.8,16.7,4.5,25.8,3.9c-1.4-2.7-2.9-5.2-5.1-6.7c-36-23.7-72.3-46.9-108-71.2
			C-130.7,394.4-140.2,396.4-150.4,396.7z M-190.2,479.8c14.1,0,27.4,0,40.7-0.1c1,0,2.4-0.5,3-1.3c4.5-5.8,8.8-11.6,13.4-17.8
			c-14.7-9.8-29-19.4-43.9-29.3C-181.4,447.8-185.7,463.4-190.2,479.8z M-167.3,395.9c-2.4,8.5-4.6,16.2-6.5,23.9
			c-0.3,1.3,0.2,3.6,1.1,4.2c14.7,10,29.5,19.8,44.7,29.9c5.4-7.2,10.6-14.2,15.9-21.3C-130.7,420.3-148.6,408.3-167.3,395.9z
			 M-112.1,395.8c-0.1,0.4-0.1,0.8-0.2,1.2c22.1,14.5,44.2,29,66.7,43.7c5-7.1,9.5-14.1,14.8-20.4c4.1-4.9,4.7-9.4,2.8-15.4
			c-3-9-2.6-9-12.2-9.2c-3.2,0-5.1,0.8-6.6,3.8c-2.7,5.5-6.4,10.6-8.8,16.2c-2.9,6.7-8.3,6.2-11,0.2c-2.6-5.9-6.1-11.4-9.4-17
			c-0.7-1.3-2.2-3-3.3-3C-90.3,395.7-101.2,395.8-112.1,395.8z M-43.4,479.6c0.1-0.3,0.3-0.6,0.4-0.8
			c-20.6-13.8-41.3-27.5-62.1-41.4c-10.7,14.2-20.9,27.9-31.5,42.1c10.4,0,19.7,0,29.9,0c-2.3-1.4-3.6-2.3-5-3.2
			c-4.9-3.1-5.3-4.4-2.2-9.1c2-3.1,4.2-6,6-9.2c2.2-3.7,5-3.9,8.4-1.9c4.8,2.9,9.7,5.8,14.5,8.7c8,4.8,8,4.8,3.4,13.1
			c-0.2,0.4-0.2,0.9-0.3,1.6C-68.8,479.6-56.1,479.6-43.4,479.6z M-38.5,445.3c8.5,5.5,16.7,10.8,26,16.9
			c-3.8-13.6-7.1-25.6-10.6-38.5C-28.7,431.5-33.4,438.2-38.5,445.3z M-101.9,464.4c-1.3,2.1-2.3,3.7-3.6,5.7
			c4.7,2.8,9,5.4,13.7,8.2c1.3-2,2.4-3.7,3.6-5.7C-92.9,469.8-97.2,467.3-101.9,464.4z"/>
		<path fill="#FFFFFF" d="M-61.2,408.7c-10.6-21.2-22.9-40-28.2-62c-2.8-11.5,1.8-23.2,11.3-29.7c10.3-7,23.3-7,33.7-0.1
			c9.7,6.5,15,18.2,11.3,29.6c-4.2,12.9-9.8,25.4-15.3,37.8C-51.9,392.2-56.4,399.7-61.2,408.7z M-82.1,340.6
			c-0.1,11.9,9.2,21.4,20.9,21.4c11.5,0,21-9.4,21.1-20.8c0.1-11.5-9.2-20.9-20.8-21.1C-72.3,319.8-82,329.2-82.1,340.6z"/>
		<path fill="#FFFFFF" d="M-150.4,396.7c10.2-0.3,19.8-2.3,29.5,4.3c35.6,24.3,72,47.5,108,71.2c2.2,1.5,3.7,4,5.1,6.7
			c-9.2,0.6-17.4,1.9-25.8-3.9c-37.2-25.5-74.9-50.3-112.5-75.3C-147.6,398.8-149,397.7-150.4,396.7z"/>
		<path fill="#FFFFFF" d="M-190.2,479.8c4.5-16.4,8.8-32.1,13.2-48.4c14.9,9.9,29.2,19.4,43.9,29.3c-4.6,6.2-8.9,12-13.4,17.8
			c-0.6,0.8-2,1.3-3,1.3C-162.8,479.9-176.1,479.8-190.2,479.8z"/>
		<path fill="#FFFFFF" d="M-167.3,395.9c18.6,12.4,36.6,24.4,55.2,36.8c-5.3,7.1-10.5,14.1-15.9,21.3c-15.2-10.1-30-19.9-44.7-29.9
			c-0.9-0.6-1.5-2.9-1.1-4.2C-171.8,412.1-169.6,404.4-167.3,395.9z"/>
		<path fill="#FFFFFF" d="M-112.1,395.8c10.9,0,21.9-0.1,32.8,0.1c1.2,0,2.6,1.7,3.3,3c3.3,5.6,6.8,11.1,9.4,17c2.6,6,8,6.5,11-0.2
			c2.4-5.6,6.1-10.7,8.8-16.2c1.5-3,3.4-3.9,6.6-3.8c9.5,0.1,9.2,0.1,12.2,9.2c2,5.9,1.3,10.5-2.8,15.4c-5.3,6.3-9.8,13.4-14.8,20.4
			c-22.5-14.7-44.6-29.2-66.7-43.7C-112.2,396.6-112.2,396.2-112.1,395.8z"/>
		<path fill="#FFFFFF" d="M-43.4,479.6c-12.7,0-25.5,0-38.4,0c0.1-0.7,0.1-1.2,0.3-1.6c4.6-8.3,4.6-8.3-3.4-13.1
			c-4.8-2.9-9.7-5.8-14.5-8.7c-3.4-2.1-6.2-1.8-8.4,1.9c-1.9,3.1-4.1,6.1-6,9.2c-3.1,4.7-2.7,6,2.2,9.1c1.4,0.9,2.8,1.8,5,3.2
			c-10.2,0-19.5,0-29.9,0c10.6-14.1,20.8-27.8,31.5-42.1c20.8,13.9,41.5,27.6,62.1,41.4C-43.1,479-43.2,479.3-43.4,479.6z"/>
		<path fill="#FFFFFF" d="M-38.5,445.3c5.1-7.1,9.9-13.9,15.4-21.6c3.6,12.9,6.9,24.9,10.6,38.5C-21.8,456.2-30,450.9-38.5,445.3z"
			/>
		<path fill="#FFFFFF" d="M-101.9,464.4c4.8,2.9,9,5.4,13.7,8.2c-1.2,1.9-2.3,3.6-3.6,5.7c-4.7-2.8-9-5.4-13.7-8.2
			C-104.3,468.1-103.3,466.5-101.9,464.4z"/>
		<path d="M-82.1,340.6c0.1-11.4,9.8-20.8,21.3-20.6c11.6,0.2,20.8,9.7,20.8,21.1c-0.1,11.4-9.6,20.8-21.1,20.8
			C-72.9,361.9-82.2,352.4-82.1,340.6z M-61.1,353.5c7,0,12.6-5.7,12.5-12.7c-0.1-6.8-5.6-12.2-12.4-12.3
			c-6.9-0.1-12.8,5.6-12.9,12.5C-73.9,347.7-68,353.6-61.1,353.5z"/>
		<path fill="#FFFFFF" d="M-61.1,353.5c-6.9,0-12.8-5.8-12.7-12.6c0-6.8,6-12.6,12.9-12.5c6.8,0.1,12.3,5.6,12.4,12.3
			C-48.4,347.8-54.1,353.5-61.1,353.5z"/>
	</g>
</g>
</svg>
